<?xml version="1.0" encoding="utf-8"?>
<svg xmlns="http://www.w3.org/2000/svg" xmlns:xlink="http://www.w3.org/1999/xlink" width="600" height="450" viewBox="0 0 600 450">
<defs>
  <clipPath id="clip00">
    <rect x="75" y="33" width="481" height="361"/>
  </clipPath>
</defs>
<defs>
  <clipPath id="clip01">
    <rect x="0" y="0" width="600" height="450"/>
  </clipPath>
</defs>
<polyline clip-path="url(#clip01)" style="stroke:#ededed; stroke-width:1.05; stroke-opacity:1; fill:none" points="
  75,377.75 555,377.75 
  "/>
<polyline clip-path="url(#clip01)" style="stroke:#ededed; stroke-width:1.05; stroke-opacity:1; fill:none" points="
  75,361.75 555,361.75 
  "/>
<polyline clip-path="url(#clip01)" style="stroke:#ededed; stroke-width:1.05; stroke-opacity:1; fill:none" points="
  75,345.75 555,345.75 
  "/>
<polyline clip-path="url(#clip01)" style="stroke:#ededed; stroke-width:1.05; stroke-opacity:1; fill:none" points="
  75,329.75 555,329.75 
  "/>
<polyline clip-path="url(#clip01)" style="stroke:#cccccc; stroke-width:1.05; stroke-opacity:1; fill:none" points="
  75,313.75 555,313.75 
  "/>
<polyline clip-path="url(#clip01)" style="stroke:#ededed; stroke-width:1.05; stroke-opacity:1; fill:none" points="
  75,297.75 555,297.75 
  "/>
<polyline clip-path="url(#clip01)" style="stroke:#ededed; stroke-width:1.05; stroke-opacity:1; fill:none" points="
  75,281.75 555,281.75 
  "/>
<polyline clip-path="url(#clip01)" style="stroke:#ededed; stroke-width:1.05; stroke-opacity:1; fill:none" points="
  75,265.75 555,265.75 
  "/>
<polyline clip-path="url(#clip01)" style="stroke:#ededed; stroke-width:1.05; stroke-opacity:1; fill:none" points="
  75,249.75 555,249.75 
  "/>
<polyline clip-path="url(#clip01)" style="stroke:#cccccc; stroke-width:1.05; stroke-opacity:1; fill:none" points="
  75,233.75 555,233.75 
  "/>
<polyline clip-path="url(#clip01)" style="stroke:#ededed; stroke-width:1.05; stroke-opacity:1; fill:none" points="
  75,217.75 555,217.75 
  "/>
<polyline clip-path="url(#clip01)" style="stroke:#ededed; stroke-width:1.05; stroke-opacity:1; fill:none" points="
  75,201.75 555,201.75 
  "/>
<polyline clip-path="url(#clip01)" style="stroke:#ededed; stroke-width:1.05; stroke-opacity:1; fill:none" points="
  75,185.75 555,185.75 
  "/>
<polyline clip-path="url(#clip01)" style="stroke:#ededed; stroke-width:1.05; stroke-opacity:1; fill:none" points="
  75,169.75 555,169.75 
  "/>
<polyline clip-path="url(#clip01)" style="stroke:#cccccc; stroke-width:1.05; stroke-opacity:1; fill:none" points="
  75,153.75 555,153.75 
  "/>
<polyline clip-path="url(#clip01)" style="stroke:#ededed; stroke-width:1.05; stroke-opacity:1; fill:none" points="
  75,137.75 555,137.75 
  "/>
<polyline clip-path="url(#clip01)" style="stroke:#ededed; stroke-width:1.05; stroke-opacity:1; fill:none" points="
  75,121.75 555,121.75 
  "/>
<polyline clip-path="url(#clip01)" style="stroke:#ededed; stroke-width:1.05; stroke-opacity:1; fill:none" points="
  75,105.75 555,105.75 
  "/>
<polyline clip-path="url(#clip01)" style="stroke:#ededed; stroke-width:1.05; stroke-opacity:1; fill:none" points="
  75,89.75 555,89.75 
  "/>
<polyline clip-path="url(#clip01)" style="stroke:#cccccc; stroke-width:1.05; stroke-opacity:1; fill:none" points="
  75,73.75 555,73.75 
  "/>
<polyline clip-path="url(#clip01)" style="stroke:#ededed; stroke-width:1.05; stroke-opacity:1; fill:none" points="
  75,57.75 555,57.75 
  "/>
<polyline clip-path="url(#clip01)" style="stroke:#ededed; stroke-width:1.05; stroke-opacity:1; fill:none" points="
  75,41.75 555,41.75 
  "/>
<polyline clip-path="url(#clip01)" style="stroke:#ededed; stroke-width:1.05; stroke-opacity:1; fill:none" points="
  105.968,393.75 105.968,33.75 
  "/>
<polyline clip-path="url(#clip01)" style="stroke:#ededed; stroke-width:1.05; stroke-opacity:1; fill:none" points="
  136.935,393.75 136.935,33.75 
  "/>
<polyline clip-path="url(#clip01)" style="stroke:#ededed; stroke-width:1.05; stroke-opacity:1; fill:none" points="
  167.903,393.75 167.903,33.75 
  "/>
<polyline clip-path="url(#clip01)" style="stroke:#ededed; stroke-width:1.05; stroke-opacity:1; fill:none" points="
  198.871,393.75 198.871,33.75 
  "/>
<polyline clip-path="url(#clip01)" style="stroke:#cccccc; stroke-width:1.05; stroke-opacity:1; fill:none" points="
  229.839,393.75 229.839,33.75 
  "/>
<polyline clip-path="url(#clip01)" style="stroke:#ededed; stroke-width:1.05; stroke-opacity:1; fill:none" points="
  260.806,393.75 260.806,33.75 
  "/>
<polyline clip-path="url(#clip01)" style="stroke:#ededed; stroke-width:1.05; stroke-opacity:1; fill:none" points="
  291.774,393.75 291.774,33.75 
  "/>
<polyline clip-path="url(#clip01)" style="stroke:#ededed; stroke-width:1.05; stroke-opacity:1; fill:none" points="
  322.742,393.75 322.742,33.75 
  "/>
<polyline clip-path="url(#clip01)" style="stroke:#ededed; stroke-width:1.05; stroke-opacity:1; fill:none" points="
  353.71,393.75 353.71,33.75 
  "/>
<polyline clip-path="url(#clip01)" style="stroke:#cccccc; stroke-width:1.05; stroke-opacity:1; fill:none" points="
  384.677,393.75 384.677,33.75 
  "/>
<polyline clip-path="url(#clip01)" style="stroke:#ededed; stroke-width:1.05; stroke-opacity:1; fill:none" points="
  415.645,393.75 415.645,33.75 
  "/>
<polyline clip-path="url(#clip01)" style="stroke:#ededed; stroke-width:1.05; stroke-opacity:1; fill:none" points="
  446.613,393.75 446.613,33.75 
  "/>
<polyline clip-path="url(#clip01)" style="stroke:#ededed; stroke-width:1.05; stroke-opacity:1; fill:none" points="
  477.581,393.75 477.581,33.75 
  "/>
<polyline clip-path="url(#clip01)" style="stroke:#ededed; stroke-width:1.05; stroke-opacity:1; fill:none" points="
  508.548,393.75 508.548,33.75 
  "/>
<polyline clip-path="url(#clip01)" style="stroke:#cccccc; stroke-width:1.05; stroke-opacity:1; fill:none" points="
  539.516,393.75 539.516,33.75 
  "/>
<g clip-path="url(#clip01)">
<text style="fill:#000000; fill-opacity:1; font-family:Arial,Helvetica Neue,Helvetica,sans-serif; font-size:15; text-anchor:start;" transform="rotate(0, 49.9074, 398.016)" x="49.9074" y="398.016">0.2</text>
</g>
<g clip-path="url(#clip01)">
<text style="fill:#000000; fill-opacity:1; font-family:Arial,Helvetica Neue,Helvetica,sans-serif; font-size:15; text-anchor:start;" transform="rotate(0, 49.9074, 318.016)" x="49.9074" y="318.016">0.4</text>
</g>
<g clip-path="url(#clip01)">
<text style="fill:#000000; fill-opacity:1; font-family:Arial,Helvetica Neue,Helvetica,sans-serif; font-size:15; text-anchor:start;" transform="rotate(0, 49.9074, 238.016)" x="49.9074" y="238.016">0.6</text>
</g>
<g clip-path="url(#clip01)">
<text style="fill:#000000; fill-opacity:1; font-family:Arial,Helvetica Neue,Helvetica,sans-serif; font-size:15; text-anchor:start;" transform="rotate(0, 49.9074, 158.016)" x="49.9074" y="158.016">0.8</text>
</g>
<g clip-path="url(#clip01)">
<text style="fill:#000000; fill-opacity:1; font-family:Arial,Helvetica Neue,Helvetica,sans-serif; font-size:15; text-anchor:start;" transform="rotate(0, 49.9074, 78.016)" x="49.9074" y="78.016">1.0</text>
</g>
<polyline clip-path="url(#clip01)" style="stroke:#000000; stroke-width:1.05; stroke-opacity:1; fill:none" points="
  75,393.75 75,393.75 84,393.75 75,393.75 75,377.75 79.5,377.75 75,377.75 75,361.75 79.5,361.75 75,361.75 
  75,345.75 79.5,345.75 75,345.75 75,329.75 79.5,329.75 75,329.75 75,313.75 84,313.75 75,313.75 75,297.75 
  79.5,297.75 75,297.75 75,281.75 79.5,281.75 75,281.75 75,265.75 79.5,265.75 75,265.75 75,249.75 79.5,249.75 
  75,249.75 75,233.75 84,233.75 75,233.75 75,217.75 79.5,217.75 75,217.75 75,201.75 79.5,201.75 75,201.75 
  75,185.75 79.5,185.75 75,185.75 75,169.75 79.5,169.75 75,169.75 75,153.75 84,153.75 75,153.75 75,137.75 
  79.5,137.75 75,137.75 75,121.75 79.5,121.75 75,121.75 75,105.75 79.5,105.75 75,105.75 75,89.75 79.5,89.75 
  75,89.75 75,73.75 84,73.75 75,73.75 75,57.75 79.5,57.75 75,57.75 75,41.75 79.5,41.75 75,41.75 
  75,33.75 
  "/>
<g clip-path="url(#clip01)">
<text style="fill:#000000; fill-opacity:1; font-family:Arial,Helvetica Neue,Helvetica,sans-serif; font-size:15; text-anchor:start;" transform="rotate(0, 70.8815, 411.642)" x="70.8815" y="411.642">0</text>
</g>
<g clip-path="url(#clip01)">
<text style="fill:#000000; fill-opacity:1; font-family:Arial,Helvetica Neue,Helvetica,sans-serif; font-size:15; text-anchor:start;" transform="rotate(0, 217.483, 411.642)" x="217.483" y="411.642">100</text>
</g>
<g clip-path="url(#clip01)">
<text style="fill:#000000; fill-opacity:1; font-family:Arial,Helvetica Neue,Helvetica,sans-serif; font-size:15; text-anchor:start;" transform="rotate(0, 372.322, 411.642)" x="372.322" y="411.642">200</text>
</g>
<g clip-path="url(#clip01)">
<text style="fill:#000000; fill-opacity:1; font-family:Arial,Helvetica Neue,Helvetica,sans-serif; font-size:15; text-anchor:start;" transform="rotate(0, 527.161, 411.642)" x="527.161" y="411.642">300</text>
</g>
<polyline clip-path="url(#clip01)" style="stroke:#000000; stroke-width:1.05; stroke-opacity:1; fill:none" points="
  75,393.75 75,393.75 75,384.75 75,393.75 105.968,393.75 105.968,389.25 105.968,393.75 136.935,393.75 136.935,389.25 136.935,393.75 
  167.903,393.75 167.903,389.25 167.903,393.75 198.871,393.75 198.871,389.25 198.871,393.75 229.839,393.75 229.839,384.75 229.839,393.75 260.806,393.75 
  260.806,389.25 260.806,393.75 291.774,393.75 291.774,389.25 291.774,393.75 322.742,393.75 322.742,389.25 322.742,393.75 353.71,393.75 353.71,389.25 
  353.71,393.75 384.677,393.75 384.677,384.75 384.677,393.75 415.645,393.75 415.645,389.25 415.645,393.75 446.613,393.75 446.613,389.25 446.613,393.75 
  477.581,393.75 477.581,389.25 477.581,393.75 508.548,393.75 508.548,389.25 508.548,393.75 539.516,393.75 539.516,384.75 539.516,393.75 555,393.75 
  
  "/>
<polyline clip-path="url(#clip01)" style="stroke:#000000; stroke-width:1.05; stroke-opacity:1; fill:none" points="
  555,393.75 555,393.75 546,393.75 555,393.75 555,377.75 550.5,377.75 555,377.75 555,361.75 550.5,361.75 555,361.75 
  555,345.75 550.5,345.75 555,345.75 555,329.75 550.5,329.75 555,329.75 555,313.75 546,313.75 555,313.75 555,297.75 
  550.5,297.75 555,297.75 555,281.75 550.5,281.75 555,281.75 555,265.75 550.5,265.75 555,265.75 555,249.75 550.5,249.75 
  555,249.75 555,233.75 546,233.75 555,233.75 555,217.75 550.5,217.75 555,217.75 555,201.75 550.5,201.75 555,201.75 
  555,185.75 550.5,185.75 555,185.75 555,169.75 550.5,169.75 555,169.75 555,153.75 546,153.75 555,153.75 555,137.75 
  550.5,137.75 555,137.75 555,121.75 550.5,121.75 555,121.75 555,105.75 550.5,105.75 555,105.75 555,89.75 550.5,89.75 
  555,89.75 555,73.75 546,73.75 555,73.75 555,57.75 550.5,57.75 555,57.75 555,41.75 550.5,41.75 555,41.75 
  555,33.75 
  "/>
<polyline clip-path="url(#clip01)" style="stroke:#000000; stroke-width:1.05; stroke-opacity:1; fill:none" points="
  75,33.75 75,33.75 75,42.75 75,33.75 105.968,33.75 105.968,38.25 105.968,33.75 136.935,33.75 136.935,38.25 136.935,33.75 
  167.903,33.75 167.903,38.25 167.903,33.75 198.871,33.75 198.871,38.25 198.871,33.75 229.839,33.75 229.839,42.75 229.839,33.75 260.806,33.75 
  260.806,38.25 260.806,33.75 291.774,33.75 291.774,38.25 291.774,33.75 322.742,33.75 322.742,38.25 322.742,33.75 353.71,33.75 353.71,38.25 
  353.71,33.75 384.677,33.75 384.677,42.75 384.677,33.75 415.645,33.75 415.645,38.25 415.645,33.75 446.613,33.75 446.613,38.25 446.613,33.75 
  477.581,33.75 477.581,38.25 477.581,33.75 508.548,33.75 508.548,38.25 508.548,33.75 539.516,33.75 539.516,42.75 539.516,33.75 555,33.75 
  
  "/>
<polyline clip-path="url(#clip00)" style="stroke:#00528a; stroke-width:1.05; stroke-opacity:1; fill:none" points="
  76.5484,74.2747 78.0968,74.8188 79.6452,77.6496 81.1935,79.2149 82.7419,80.3568 84.2903,82.0339 85.8387,84.3906 87.3871,85.7961 88.9355,87.2256 90.4839,88.1972 
  92.0323,89.8829 93.5806,91.4827 95.129,92.1468 96.6774,94.2523 98.2258,95.7298 99.7742,97.9468 101.323,99.3238 102.871,100.266 104.419,103.244 105.968,103.402 
  107.516,105.696 109.065,108.072 110.613,108.328 112.161,108.967 113.71,111.013 115.258,112.279 116.806,115.003 118.355,117.79 119.903,119.61 121.452,120.831 
  123,121.855 124.548,123.754 126.097,125.058 127.645,127.238 129.194,129.48 130.742,130.32 132.29,131.143 133.839,131.95 135.387,134.068 136.935,136.49 
  138.484,138.24 140.032,140.223 141.581,141.477 143.129,142.364 144.677,143.74 146.226,144.614 147.774,145.966 149.323,148.936 150.871,150.717 152.419,153.46 
  153.968,154.496 155.516,156.63 157.065,158.747 158.613,161.253 160.161,162.599 161.71,165.771 163.258,166.276 164.806,168.093 166.355,170.102 167.903,171.921 
  169.452,173.702 171,174.072 172.548,175.974 174.097,178.701 175.645,180.557 177.194,183.071 178.742,185.917 180.29,187.822 181.839,190.769 183.387,194.626 
  184.935,197.876 186.484,201.675 188.032,204.264 189.581,207.713 191.129,210.393 192.677,212.843 194.226,215.198 195.774,218.494 197.323,221.151 198.871,222.853 
  200.419,224.428 201.968,225.774 203.516,227.718 205.065,229.175 206.613,231.916 208.161,234.411 209.71,237.373 211.258,239.83 212.806,243.405 214.355,247.396 
  215.903,248.459 217.452,252.275 219,255.155 220.548,259.475 222.097,259.935 223.645,260.998 225.194,263.898 226.742,267.709 228.29,268.529 229.839,272.103 
  231.387,274.51 232.935,274.633 234.484,275.299 236.032,277.483 237.581,278.949 239.129,280.836 240.677,283.187 242.226,285.897 243.774,289.404 245.323,291.077 
  246.871,292.35 248.419,295.588 249.968,297.897 251.516,301.716 253.065,303.372 254.613,303.791 256.161,302.354 257.71,305.716 259.258,309.992 260.806,313.368 
  262.355,316.29 263.903,319.874 265.452,322.837 267,326.95 268.548,329.726 270.097,329.35 271.645,329.995 273.194,332.949 274.742,333.824 276.29,336.742 
  277.839,340.649 279.387,341.897 280.935,345.321 282.484,348.022 284.032,352.88 285.581,357.927 287.129,357.524 288.677,358.944 290.226,359.002 291.774,359.816 
  293.323,361.974 294.871,363.607 296.419,364.642 297.968,368.393 299.516,370.253 301.065,371.178 302.613,373.326 304.161,377.296 305.71,377.04 307.258,378.442 
  308.806,378.466 310.355,378.764 311.903,379.723 313.452,380.939 315,381.551 316.548,383.566 318.097,384.283 319.645,386.115 321.194,385.967 322.742,386.463 
  324.29,386.798 325.839,387.067 327.387,387.476 328.935,386.36 330.484,387.466 332.032,387.449 333.581,387.521 335.129,386.811 336.677,386.794 338.226,386.527 
  339.774,386.039 341.323,385.747 342.871,381.973 344.419,380.987 345.968,378.287 347.516,376.877 349.065,375.184 350.613,371.397 352.161,369.759 353.71,366.398 
  355.258,368.747 356.806,367.08 358.355,363.196 359.903,364.213 361.452,363.882 363,360.659 364.548,358.693 366.097,356.247 367.645,351.72 369.194,347.97 
  370.742,346.826 372.29,339.714 373.839,337.334 375.387,329.882 376.935,321.553 378.484,322.647 380.032,327.758 381.581,325.539 383.129,319.398 384.677,315.993 
  386.226,314.657 387.774,319.019 389.323,313.324 390.871,319.758 392.419,316.867 393.968,311.794 395.516,303.852 397.065,293.779 398.613,287.358 400.161,281.205 
  401.71,284.243 403.258,273.063 404.806,276.204 406.355,267.067 407.903,265.322 409.452,256.651 411,261.644 412.548,261.986 414.097,257.498 415.645,264.896 
  417.194,268.251 418.742,258.118 420.29,244.173 421.839,247.831 423.387,241.539 424.935,239.316 426.484,239.05 428.032,226.609 429.581,232.624 431.129,238.747 
  432.677,226.745 434.226,211.195 435.774,205.764 437.323,206.125 438.871,192.678 440.419,216.518 441.968,217.861 443.516,216.334 445.065,205.912 446.613,195.917 
  448.161,180.256 449.71,174.641 451.258,172.268 452.806,173.512 454.355,153.692 455.903,154.173 457.452,142.983 459,140.252 460.548,140.727 462.097,144.368 
  463.645,129.655 465.194,115.146 466.742,89.6193 468.29,67.3544 469.839,90.9954 471.387,71.5534 472.935,48.5811 474.484,36.8908 476.032,53.2549 477.581,69.9181 
  479.129,62.6438 480.677,54.7571 482.226,58.5402 483.774,56.5674 485.323,81.2934 486.871,107.666 488.419,84.0861 489.968,82.935 491.516,112.61 493.065,107.327 
  494.613,108.7 496.161,96.9832 497.71,86.2298 499.258,84.8423 500.806,84.8695 502.355,80.9273 503.903,91.9718 505.452,91.8006 507,88.897 508.548,101.104 
  510.097,118.368 511.645,120.554 513.194,101.137 514.742,104.02 516.29,84.1768 517.839,82.0189 519.387,72.5377 520.935,65.4523 522.484,57.6847 524.032,61.3751 
  525.581,66.2945 527.129,79.0421 528.677,62.6338 530.226,46.9152 531.774,59.2102 533.323,82.6599 534.871,67.4347 536.419,87.533 537.968,67.7369 539.516,67.9892 
  541.065,68.1909 
  "/>
</svg>
